<svg xmlns="http://www.w3.org/2000/svg" viewBox="0 0 240 248" width="240" height="248" role="img" aria-label="BuilderAudit">
  <title>BuilderAudit</title>
      <rect x="151" y="150" width="30" height="78" rx="15" transform="rotate(-45 166 189)" fill="#1B1A17"></rect>
      <circle cx="114" cy="152" r="58" fill="#FFFFFF" stroke="#1B1A17" stroke-width="14"></circle>
      <path d="M86 130 Q75 152 88 176" fill="none" stroke="#D8D5CC" stroke-width="9" stroke-linecap="round"></path>
      <rect x="32" y="92" width="164" height="31" rx="15.5" fill="#FFD24D" stroke="#1B1A17" stroke-width="8"></rect>
      <path d="M62 96 Q62 40 114 40 Q166 40 166 96 Z" fill="#FFD24D" stroke="#1B1A17" stroke-width="8" stroke-linejoin="round"></path>
      <rect x="100" y="26" width="28" height="20" rx="5" fill="#FFD24D" stroke="#1B1A17" stroke-width="8"></rect>
      <path d="M68 86 Q114 97 160 86" fill="none" stroke="#5247B8" stroke-width="9" stroke-linecap="round"></path>
      <path d="M114 46 V90" fill="none" stroke="#1B1A17" stroke-width="6" stroke-linecap="round"></path>
      <path d="M88 52 Q80 72 86 90" fill="none" stroke="#1B1A17" stroke-width="5.5" stroke-linecap="round"></path>
      <path d="M140 52 Q148 72 142 90" fill="none" stroke="#1B1A17" stroke-width="5.5" stroke-linecap="round"></path>
</svg>
